<?xml version="1.0" encoding="utf-8" standalone="no"?>
<!DOCTYPE svg PUBLIC "-//W3C//DTD SVG 1.1//EN"
  "http://www.w3.org/Graphics/SVG/1.1/DTD/svg11.dtd">
<svg xmlns:xlink="http://www.w3.org/1999/xlink" width="352.948125pt" height="99.678125pt" viewBox="0 0 352.948125 99.678125" xmlns="http://www.w3.org/2000/svg" version="1.1">
 <metadata>
  <rdf:RDF xmlns:dc="http://purl.org/dc/elements/1.1/" xmlns:cc="http://creativecommons.org/ns#" xmlns:rdf="http://www.w3.org/1999/02/22-rdf-syntax-ns#">
   <cc:Work>
    <dc:type rdf:resource="http://purl.org/dc/dcmitype/StillImage"/>
    <dc:date>2024-02-28T02:33:50.584337</dc:date>
    <dc:format>image/svg+xml</dc:format>
    <dc:creator>
     <cc:Agent>
      <dc:title>Matplotlib v3.7.1, https://matplotlib.org/</dc:title>
     </cc:Agent>
    </dc:creator>
   </cc:Work>
  </rdf:RDF>
 </metadata>
 <defs>
  <style type="text/css">*{stroke-linejoin: round; stroke-linecap: butt}</style>
 </defs>
 <g id="figure_1">
  <g id="patch_1">
   <path d="M 0 99.678125 
L 352.948125 99.678125 
L 352.948125 0 
L 0 0 
z
" style="fill: #ffffff"/>
  </g>
  <g id="axes_1">
   <g id="matplotlib.axis_1">
    <g id="text_1">
     <!-- Time $\longrightarrow$ -->
     <g transform="translate(87.035 90.398437) scale(0.1 -0.1)">
      <defs>
       <path id="DejaVuSans-54" d="M -19 4666 
L 3928 4666 
L 3928 4134 
L 2272 4134 
L 2272 0 
L 1638 0 
L 1638 4134 
L -19 4134 
L -19 4666 
z
" transform="scale(0.015625)"/>
       <path id="DejaVuSans-69" d="M 603 3500 
L 1178 3500 
L 1178 0 
L 603 0 
L 603 3500 
z
M 603 4863 
L 1178 4863 
L 1178 4134 
L 603 4134 
L 603 4863 
z
" transform="scale(0.015625)"/>
       <path id="DejaVuSans-6d" d="M 3328 2828 
Q 3544 3216 3844 3400 
Q 4144 3584 4550 3584 
Q 5097 3584 5394 3201 
Q 5691 2819 5691 2113 
L 5691 0 
L 5113 0 
L 5113 2094 
Q 5113 2597 4934 2840 
Q 4756 3084 4391 3084 
Q 3944 3084 3684 2787 
Q 3425 2491 3425 1978 
L 3425 0 
L 2847 0 
L 2847 2094 
Q 2847 2600 2669 2842 
Q 2491 3084 2119 3084 
Q 1678 3084 1418 2786 
Q 1159 2488 1159 1978 
L 1159 0 
L 581 0 
L 581 3500 
L 1159 3500 
L 1159 2956 
Q 1356 3278 1631 3431 
Q 1906 3584 2284 3584 
Q 2666 3584 2933 3390 
Q 3200 3197 3328 2828 
z
" transform="scale(0.015625)"/>
       <path id="DejaVuSans-65" d="M 3597 1894 
L 3597 1613 
L 953 1613 
Q 991 1019 1311 708 
Q 1631 397 2203 397 
Q 2534 397 2845 478 
Q 3156 559 3463 722 
L 3463 178 
Q 3153 47 2828 -22 
Q 2503 -91 2169 -91 
Q 1331 -91 842 396 
Q 353 884 353 1716 
Q 353 2575 817 3079 
Q 1281 3584 2069 3584 
Q 2775 3584 3186 3129 
Q 3597 2675 3597 1894 
z
M 3022 2063 
Q 3016 2534 2758 2815 
Q 2500 3097 2075 3097 
Q 1594 3097 1305 2825 
Q 1016 2553 972 2059 
L 3022 2063 
z
" transform="scale(0.015625)"/>
       <path id="DejaVuSans-20" transform="scale(0.015625)"/>
       <path id="DejaVuSans-27f6" d="M 8863 2147 
L 8863 1866 
L 7634 638 
L 7259 1013 
L 7988 1741 
L 366 1741 
L 366 2272 
L 7988 2272 
L 7259 3000 
L 7634 3375 
L 8863 2147 
z
" transform="scale(0.015625)"/>
      </defs>
      <use xlink:href="#DejaVuSans-54" transform="translate(0 0.015625)"/>
      <use xlink:href="#DejaVuSans-69" transform="translate(61.083984 0.015625)"/>
      <use xlink:href="#DejaVuSans-6d" transform="translate(88.867188 0.015625)"/>
      <use xlink:href="#DejaVuSans-65" transform="translate(186.279297 0.015625)"/>
      <use xlink:href="#DejaVuSans-20" transform="translate(247.802734 0.015625)"/>
      <use xlink:href="#DejaVuSans-27f6" transform="translate(299.072266 0.015625)"/>
     </g>
    </g>
   </g>
   <g id="matplotlib.axis_2"/>
   <g id="line2d_1">
    <path d="M 16.557727 34.701228 
L 17.025848 37.511857 
L 17.400344 38.712036 
L 17.77484 39.237908 
L 18.055713 39.299163 
L 18.336585 39.126391 
L 18.711081 38.561275 
L 19.085578 37.593088 
L 19.553698 35.68451 
L 20.021818 32.733585 
L 20.583563 27.394228 
L 21.707052 15.188682 
L 21.8943 14.887912 
L 22.081548 15.578178 
L 22.362421 18.343104 
L 23.95403 39.019504 
L 24.42215 41.31314 
L 24.890271 42.536516 
L 25.452015 43.353513 
L 26.48188 44.662675 
L 26.950001 45.642644 
L 27.418121 47.172236 
L 27.886242 49.593701 
L 28.354362 53.382403 
L 28.822482 59.002983 
L 29.852347 72.650542 
L 29.945971 72.915619 
L 30.039595 72.849057 
L 30.226844 71.692931 
L 30.507716 67.715938 
L 31.818453 45.163849 
L 32.286574 41.538424 
L 32.848318 39.016416 
L 34.065431 34.346337 
L 34.627176 30.804918 
L 35.282544 24.923467 
L 36.031537 18.31203 
L 36.312409 17.425389 
L 36.406033 17.459825 
L 36.593281 18.055381 
L 36.874154 20.15158 
L 37.529522 27.893208 
L 38.184891 34.430592 
L 38.653011 37.092684 
L 39.027508 38.201623 
L 39.402004 38.635477 
L 39.682876 38.615134 
L 39.963748 38.341654 
L 40.338245 37.60019 
L 40.806365 36.007323 
L 41.274486 33.482216 
L 41.742606 29.75393 
L 42.397975 22.506074 
L 42.959719 16.701579 
L 43.240591 15.605077 
L 43.334216 15.665239 
L 43.521464 16.468095 
L 43.802336 19.202416 
L 45.300321 37.781255 
L 45.768442 40.129307 
L 46.236562 41.29799 
L 46.611058 41.735007 
L 47.079179 41.932698 
L 47.547299 41.89918 
L 48.109044 41.635125 
L 48.670788 41.089529 
L 49.138909 40.302404 
L 49.607029 39.014959 
L 50.07515 36.909118 
L 50.54327 33.492321 
L 51.01139 28.14519 
L 51.760383 15.819921 
L 52.134879 11.255397 
L 52.322128 10.78771 
L 52.509376 11.899751 
L 52.790248 16.251685 
L 54.100985 41.475764 
L 54.569106 45.465927 
L 55.13085 48.322116 
L 56.254339 53.373636 
L 56.909708 57.757892 
L 57.939573 65.022111 
L 58.220445 65.696226 
L 58.314069 65.686164 
L 58.501317 65.293458 
L 58.78219 63.836486 
L 59.343934 58.986729 
L 60.092927 52.828622 
L 60.561047 50.577896 
L 60.935543 49.692924 
L 61.216416 49.489503 
L 61.497288 49.633682 
L 61.77816 50.100169 
L 62.152657 51.212566 
L 62.620777 53.424696 
L 63.182521 57.332987 
L 64.306011 66.036616 
L 64.586883 66.610605 
L 64.774131 66.286335 
L 65.055003 64.760815 
L 65.523124 60.325436 
L 66.36574 52.298023 
L 66.833861 49.707793 
L 67.208357 48.62711 
L 67.489229 48.293245 
L 67.770102 48.304293 
L 68.050974 48.624201 
L 68.42547 49.510411 
L 68.893591 51.399398 
L 69.361711 54.285145 
L 70.01708 60.068836 
L 70.766072 66.785282 
L 71.046945 67.78398 
L 71.140569 67.790746 
L 71.327817 67.275216 
L 71.608689 65.273319 
L 72.170434 58.716884 
L 72.825802 51.652994 
L 73.293923 48.577674 
L 73.668419 47.213503 
L 74.042915 46.586653 
L 74.323788 46.489122 
L 74.60466 46.65547 
L 74.979156 47.252802 
L 75.353653 48.294818 
L 75.821773 50.346939 
L 76.289893 53.476102 
L 76.851638 58.950956 
L 77.787879 68.904598 
L 77.975127 69.60166 
L 78.068751 69.62818 
L 78.255999 68.993841 
L 78.536871 66.453562 
L 79.19224 56.889592 
L 79.753984 49.940559 
L 80.222105 46.421331 
L 80.690225 44.513793 
L 81.158346 43.594749 
L 81.626466 43.214485 
L 82.094587 43.118853 
L 82.656331 43.222388 
L 83.218076 43.528799 
L 83.77982 44.113292 
L 84.247941 44.951667 
L 84.716061 46.329758 
L 85.184181 48.597556 
L 85.652302 52.291667 
L 86.120422 58.056483 
L 87.243911 74.66346 
L 87.337535 74.789172 
L 87.431159 74.502247 
L 87.618408 72.698459 
L 87.992904 65.336048 
L 88.835521 47.283898 
L 89.303641 41.574111 
L 89.771762 38.229906 
L 90.42713 35.24074 
L 91.269747 31.278987 
L 91.925116 26.974344 
L 92.861356 20.738466 
L 93.142229 19.995372 
L 93.329477 20.034282 
L 93.516725 20.525275 
L 93.797597 22.026796 
L 94.452966 27.448854 
L 95.108334 32.254611 
L 95.576455 34.247246 
L 95.950951 34.973512 
L 96.231823 35.073574 
L 96.512696 34.83072 
L 96.887192 34.005203 
L 97.355312 32.172508 
L 97.917057 28.777182 
L 99.321418 19.297508 
L 99.508666 19.198656 
L 99.695915 19.621513 
L 99.976787 21.169254 
L 100.538531 26.269499 
L 101.287524 32.657006 
L 101.755644 34.969612 
L 102.130141 35.884172 
L 102.411013 36.107588 
L 102.691885 35.98581 
L 102.972758 35.546128 
L 103.347254 34.476547 
L 103.815374 32.32045 
L 104.377119 28.432754 
L 105.687856 18.364053 
L 105.875104 18.206492 
L 106.062352 18.665594 
L 106.343225 20.439275 
L 106.904969 26.315144 
L 107.653962 33.511177 
L 108.122082 36.079311 
L 108.496579 37.135406 
L 108.777451 37.46073 
L 109.058323 37.454038 
L 109.339195 37.152832 
L 109.713692 36.31367 
L 110.181812 34.512479 
L 110.649932 31.720549 
L 111.211677 26.871985 
L 112.241542 17.337164 
L 112.42879 16.833377 
L 112.522414 16.856602 
L 112.709662 17.478726 
L 112.990535 19.728797 
L 113.645903 28.047087 
L 114.301272 34.978205 
L 114.769392 37.786552 
L 115.143889 38.987275 
L 115.518385 39.525876 
L 115.799257 39.607812 
L 116.080129 39.46721 
L 116.454626 38.966196 
L 116.829122 38.091525 
L 117.297242 36.350722 
L 117.765363 33.62832 
L 118.233483 29.575811 
L 118.888852 21.604675 
L 119.450596 15.402475 
L 119.637845 14.573557 
L 119.731469 14.523281 
L 119.918717 15.208064 
L 120.199589 18.051141 
L 121.791199 39.405854 
L 122.259319 41.780637 
L 122.727439 43.094471 
L 123.476432 44.373774 
L 124.131801 45.604529 
L 124.599921 46.952869 
L 125.068042 49.026046 
L 125.536162 52.223577 
L 126.004282 56.979843 
L 127.31502 71.862964 
L 127.408644 71.743792 
L 127.595892 70.600803 
L 127.876764 66.922104 
L 129.187501 46.205391 
L 129.655622 42.838234 
L 130.123742 40.883884 
L 131.808976 35.317517 
L 132.277096 32.375654 
L 132.838841 27.230789 
L 133.96233 16.015422 
L 134.149578 15.762672 
L 134.336826 16.394834 
L 134.617698 18.888988 
L 135.273067 28.258471 
L 135.834811 35.087445 
L 136.302932 38.551578 
L 136.771052 40.417597 
L 137.145548 41.168376 
L 137.520045 41.516587 
L 137.894541 41.609279 
L 138.362662 41.479878 
L 138.830782 41.114459 
L 139.298902 40.466006 
L 139.767023 39.400117 
L 140.235143 37.672742 
L 140.703264 34.891762 
L 141.171384 30.515018 
L 141.733129 22.609389 
L 142.482121 12.079192 
L 142.669369 11.530435 
L 142.762994 11.797215 
L 142.950242 13.425989 
L 143.324738 20.07575 
L 144.260979 38.138661 
L 144.729099 43.032479 
L 145.19722 45.905361 
L 145.946212 48.895142 
L 146.601581 51.783664 
L 147.163326 55.325866 
L 148.005942 62.51569 
L 148.474063 65.879615 
L 148.754935 66.711727 
L 148.848559 66.711408 
L 149.035807 66.264941 
L 149.316679 64.557107 
L 149.878424 58.897774 
L 150.627417 51.919032 
L 151.095537 49.417768 
L 151.470033 48.399404 
L 151.750906 48.102331 
L 152.031778 48.142019 
L 152.31265 48.484056 
L 152.687147 49.393355 
L 153.155267 51.308889 
L 153.623387 54.230221 
L 154.278756 60.102755 
L 155.027749 66.95095 
L 155.308621 67.962842 
L 155.402245 67.964857 
L 155.589493 67.425358 
L 155.870365 65.357639 
L 156.43211 58.640092 
L 157.087479 51.464443 
L 157.555599 48.357073 
L 157.930095 46.975842 
L 158.304592 46.328272 
L 158.585464 46.20852 
L 158.866336 46.344343 
L 159.240832 46.884439 
L 159.615329 47.845826 
L 160.083449 49.758281 
L 160.55157 52.708826 
L 161.113314 57.995872 
L 162.236803 69.69633 
L 162.424051 69.922436 
L 162.6113 69.201245 
L 162.892172 66.48382 
L 164.483781 46.53396 
L 164.951902 44.340231 
L 165.420022 43.219176 
L 165.888142 42.65726 
L 166.637135 42.194706 
L 167.573376 41.597059 
L 168.135121 40.932964 
L 168.603241 40.002361 
L 169.071361 38.480355 
L 169.539482 35.983911 
L 170.007602 31.944676 
L 170.475723 25.752129 
L 171.505588 10.634534 
L 171.599212 10.493416 
L 171.692836 10.760447 
L 171.880084 12.514903 
L 172.25458 19.77655 
L 173.097197 37.752473 
L 173.565317 43.466789 
L 174.033438 46.813561 
L 174.688806 49.792739 
L 175.531423 53.730224 
L 176.186792 58.044304 
L 177.123033 64.459972 
L 177.403905 65.290957 
L 177.591153 65.305844 
L 177.778401 64.857409 
L 178.059274 63.388847 
L 178.621018 58.73579 
L 179.370011 52.952969 
L 179.838131 50.873383 
L 180.212627 50.091592 
L 180.4935 49.955256 
L 180.774372 50.163964 
L 181.055244 50.696385 
L 181.429741 51.901328 
L 181.897861 54.226239 
L 182.55323 58.948517 
L 183.395846 65.243087 
L 183.676719 66.120753 
L 183.770343 66.166513 
L 183.957591 65.855014 
L 184.238463 64.426017 
L 184.706584 60.276601 
L 185.5492 52.680597 
L 186.017321 50.205408 
L 186.391817 49.18561 
L 186.672689 48.8941 
L 186.953562 48.952323 
L 187.234434 49.328771 
L 187.60893 50.308885 
L 188.077051 52.341341 
L 188.638795 56.090975 
L 190.043156 67.063226 
L 190.230405 67.167067 
L 190.417653 66.632855 
L 190.698525 64.726202 
L 191.260269 58.631605 
L 191.915638 52.062406 
L 192.383758 49.1972 
L 192.758255 47.953357 
L 193.132751 47.441373 
L 193.413623 47.443356 
L 193.694496 47.731433 
L 194.068992 48.539718 
L 194.537112 50.282705 
L 195.005233 53.005202 
L 195.566977 57.809784 
L 196.690466 68.32983 
L 196.877715 68.669146 
L 196.971339 68.544793 
L 197.158587 67.698434 
L 197.439459 65.115698 
L 198.937444 48.261014 
L 199.405565 46.174622 
L 199.780061 45.36912 
L 200.154558 45.084358 
L 200.43543 45.124382 
L 200.809926 45.458968 
L 201.184422 46.109717 
L 201.652543 47.45223 
L 202.120663 49.603216 
L 202.588784 52.920525 
L 203.150528 58.930777 
L 203.712273 66.549243 
L 203.712273 66.549243 
" clip-path="url(#p9e19282b6b)" style="fill: none; stroke: #000000; stroke-opacity: 0.5; stroke-width: 1.5; stroke-linecap: square"/>
   </g>
   <g id="line2d_2">
    <path d="M 16.557727 35.441712 
L 17.025848 37.948404 
L 17.400344 38.965158 
L 17.681216 39.293917 
L 17.962089 39.333487 
L 18.242961 39.130184 
L 18.617457 38.508006 
L 19.085578 37.15881 
L 19.553698 35.117818 
L 20.021818 31.924797 
L 20.583563 26.27814 
L 21.613428 15.197798 
L 21.800676 14.869413 
L 21.8943 15.036906 
L 22.081548 16.182649 
L 22.456045 21.084336 
L 23.48591 35.925671 
L 23.95403 39.558793 
L 24.42215 41.637118 
L 24.890271 42.731634 
L 25.452015 43.460696 
L 26.388256 44.61246 
L 26.856377 45.594507 
L 27.324497 47.16766 
L 27.792617 49.745047 
L 28.260738 53.435056 
L 28.728858 58.98708 
L 29.758723 72.564559 
L 29.852347 73.017499 
L 29.945971 72.963205 
L 30.13322 71.930622 
L 30.320468 69.386138 
L 31.537581 47.310125 
L 32.005701 42.681618 
L 32.473822 40.076159 
L 33.316438 37.02967 
L 33.971807 34.311111 
L 34.439927 31.513898 
L 35.095296 25.805662 
L 35.937913 18.323922 
L 36.218785 17.457141 
L 36.312409 17.476401 
L 36.499657 18.051799 
L 36.78053 20.161061 
L 38.465763 36.729512 
L 38.840259 38.04504 
L 39.214756 38.618559 
L 39.495628 38.669324 
L 39.7765 38.449358 
L 40.150997 37.763939 
L 40.619117 36.291665 
L 41.087237 34.046885 
L 41.555358 30.540796 
L 42.210726 23.632101 
L 42.866095 16.688404 
L 43.146967 15.616608 
L 43.240591 15.64028 
L 43.42784 16.391487 
L 43.708712 19.195817 
L 45.113073 37.127863 
L 45.581194 39.814282 
L 46.049314 41.200495 
L 46.42381 41.719415 
L 46.891931 41.961054 
L 47.360051 41.945806 
L 47.921796 41.690143 
L 48.389916 41.257289 
L 48.858037 40.531391 
L 49.326157 39.36964 
L 49.887901 37.213577 
L 50.262398 35.008715 
L 50.730518 30.523684 
L 51.292263 22.339091 
L 52.041255 11.214363 
L 52.228504 10.731391 
L 52.322128 10.955903 
L 52.509376 12.755387 
L 52.883872 20.387963 
L 53.726489 37.586175 
L 54.288233 43.979178 
L 54.756354 47.136127 
L 55.505347 50.31926 
L 56.160715 53.510601 
L 56.816084 57.795543 
L 57.939573 65.391892 
L 58.126821 65.704587 
L 58.314069 65.577503 
L 58.501317 64.995023 
L 58.78219 63.201836 
L 60.186551 51.819063 
L 60.654671 50.139401 
L 61.029168 49.606781 
L 61.31004 49.60646 
L 61.590912 49.932368 
L 61.965408 50.907707 
L 62.433529 52.993965 
L 62.995273 56.627495 
L 64.399635 66.587717 
L 64.493259 66.630066 
L 64.680507 66.341482 
L 64.867755 65.51339 
L 65.242251 62.22253 
L 66.272116 52.305673 
L 66.740237 49.772348 
L 67.114733 48.722645 
L 67.395605 48.386571 
L 67.676478 48.372608 
L 67.95735 48.656948 
L 68.331846 49.523846 
L 68.706342 51.010735 
L 69.268087 54.36422 
L 69.923456 60.042301 
L 70.766072 67.302972 
L 70.953321 67.835044 
L 71.046945 67.825698 
L 71.234193 67.367488 
L 71.421441 66.240919 
L 71.889561 60.966686 
L 72.825802 50.888205 
L 73.293923 48.172678 
L 73.668419 47.050749 
L 74.042915 46.585547 
L 74.323788 46.56486 
L 74.60466 46.789016 
L 74.979156 47.46613 
L 75.353653 48.643387 
L 75.821773 50.956616 
L 76.383517 55.16061 
L 77.038886 62.251346 
L 77.694255 68.827155 
L 77.881503 69.685756 
L 77.975127 69.691626 
L 78.162375 69.117259 
L 78.349623 67.684235 
L 78.911368 59.738473 
L 79.66036 49.905749 
L 80.128481 46.375235 
L 80.596601 44.529747 
L 81.064722 43.635697 
L 81.532842 43.243628 
L 82.000963 43.125036 
L 82.562707 43.197645 
L 83.124452 43.473176 
L 83.592572 43.916477 
L 84.060692 44.678788 
L 84.435189 45.676861 
L 84.903309 47.71019 
L 85.37143 50.699635 
L 85.83955 55.502108 
L 86.401295 64.208509 
L 87.056663 73.946024 
L 87.243911 74.937799 
L 87.431159 74.011964 
L 87.618408 71.402256 
L 88.929145 44.55394 
L 89.397265 39.903296 
L 89.95901 36.798924 
L 91.456995 29.687323 
L 92.95498 20.22104 
L 93.142229 20.04205 
L 93.329477 20.307089 
L 93.610349 21.500347 
L 94.078469 25.059388 
L 94.921086 31.698776 
L 95.389207 33.917354 
L 95.763703 34.817289 
L 96.044575 35.043078 
L 96.231823 34.998507 
L 96.512696 34.657768 
L 96.887192 33.726233 
L 97.355312 31.801266 
L 97.823433 28.843707 
L 99.13417 19.592516 
L 99.321418 19.248596 
L 99.415042 19.261055 
L 99.60229 19.679694 
L 99.883163 21.21212 
L 100.444907 26.328249 
L 101.1939 32.654819 
L 101.66202 34.950512 
L 102.036517 35.855976 
L 102.317389 36.078242 
L 102.598261 35.955069 
L 102.879133 35.511926 
L 103.25363 34.461356 
L 103.72175 32.394216 
L 104.189871 29.188292 
L 105.594232 18.411909 
L 105.78148 18.244357 
L 105.968728 18.69054 
L 106.2496 20.460054 
L 106.811345 26.355078 
L 107.560338 33.523995 
L 108.028458 36.095138 
L 108.402954 37.14454 
L 108.683827 37.460533 
L 108.964699 37.440188 
L 109.245571 37.118313 
L 109.620068 36.247914 
L 110.088188 34.488871 
L 110.556308 31.728371 
L 111.211677 25.88264 
L 112.147918 17.35838 
L 112.335166 16.858869 
L 112.42879 16.861164 
L 112.616038 17.452186 
L 112.896911 19.727625 
L 114.48852 36.913028 
L 114.95664 38.830095 
L 115.331137 39.510977 
L 115.612009 39.658811 
L 115.892881 39.562481 
L 116.267378 39.099959 
L 116.641874 38.255023 
L 117.109994 36.641717 
L 117.578115 34.203274 
L 118.046235 30.455562 
L 118.60798 24.05988 
L 119.356972 15.385498 
L 119.544221 14.588476 
L 119.637845 14.504593 
L 119.731469 14.657235 
L 119.918717 15.811983 
L 120.293213 20.885206 
L 121.323078 36.199799 
L 121.791199 39.927451 
L 122.259319 42.097078 
L 122.727439 43.296453 
L 124.412673 46.610272 
L 124.880793 48.573588 
L 125.348914 51.617748 
L 125.817034 55.918422 
L 126.472403 64.62827 
L 126.940523 70.362587 
L 127.221395 71.973442 
L 127.31502 71.833837 
L 127.502268 70.828792 
L 127.78314 66.803184 
L 129.000253 47.14808 
L 129.468374 43.336657 
L 129.936494 41.195448 
L 130.685487 39.009913 
L 131.340855 36.872171 
L 131.9026 34.2319 
L 132.37072 30.797659 
L 133.026089 24.039008 
L 133.775081 16.447003 
L 133.96233 15.801775 
L 134.055954 15.754035 
L 134.149578 15.920708 
L 134.336826 16.967113 
L 134.711322 21.374392 
L 135.834811 35.965028 
L 136.302932 39.068495 
L 136.771052 40.726593 
L 137.145548 41.359702 
L 137.520045 41.619896 
L 137.894541 41.646276 
L 138.362662 41.443145 
L 138.830782 40.981625 
L 139.298902 40.180852 
L 139.767023 38.91271 
L 140.235143 37.02536 
L 140.703264 34.135314 
L 141.171384 29.38655 
L 141.733129 21.140393 
L 142.388497 12.044424 
L 142.575745 11.494463 
L 142.669369 11.651486 
L 142.856618 13.172212 
L 143.231114 20.12859 
L 144.167355 37.892754 
L 144.729099 43.581076 
L 145.19722 46.404294 
L 146.976077 54.758745 
L 147.72507 60.795435 
L 148.380439 65.907112 
L 148.661311 66.740288 
L 148.754935 66.732631 
L 148.942183 66.337416 
L 149.223055 64.656919 
L 149.972048 56.864598 
L 150.533793 51.928746 
L 151.001913 49.482672 
L 151.376409 48.493706 
L 151.657282 48.192969 
L 151.938154 48.207109 
L 152.219026 48.514287 
L 152.593522 49.406233 
L 153.061643 51.387306 
L 153.623387 55.013573 
L 154.278756 61.028237 
L 154.934125 66.90812 
L 155.214997 68.016883 
L 155.308621 68.002091 
L 155.495869 67.522663 
L 155.683117 66.354488 
L 156.151238 60.943296 
L 157.087479 50.687231 
L 157.555599 47.938824 
L 157.930095 46.800531 
L 158.304592 46.314128 
L 158.585464 46.270374 
L 158.866336 46.462739 
L 159.240832 47.077835 
L 159.615329 48.15861 
L 160.083449 50.321876 
L 160.55157 53.55704 
L 161.113314 59.066927 
L 162.049555 69.169518 
L 162.236803 70.012299 
L 162.330427 69.988336 
L 162.517675 69.341151 
L 162.704924 67.772274 
L 163.453916 56.586446 
L 164.015661 49.479049 
L 164.483781 45.936716 
L 164.951902 44.071756 
L 165.420022 43.122382 
L 165.981767 42.551872 
L 167.760624 41.231647 
L 168.228745 40.447459 
L 168.696865 39.210548 
L 169.25861 36.95586 
L 169.633106 34.552279 
L 170.101226 29.707389 
L 170.662971 21.084336 
L 171.318339 11.132328 
L 171.505588 10.454545 
L 171.599212 10.601051 
L 171.78646 12.213611 
L 172.160956 19.846638 
L 173.003573 37.521827 
L 173.565317 44.146981 
L 174.033438 47.405765 
L 174.782431 50.665885 
L 175.437799 53.865846 
L 176.186792 58.763867 
L 177.123033 64.867213 
L 177.403905 65.357578 
L 177.591153 65.167871 
L 177.778401 64.540113 
L 178.059274 62.753976 
L 179.463635 52.026223 
L 179.931755 50.488044 
L 180.212627 50.093189 
L 180.4935 50.043769 
L 180.774372 50.327861 
L 181.055244 50.961357 
L 181.429741 52.355673 
L 181.991485 55.485787 
L 182.740478 61.219267 
L 183.395846 65.693883 
L 183.583095 66.142624 
L 183.770343 66.100381 
L 183.957591 65.581413 
L 184.238463 63.796449 
L 185.736448 51.07774 
L 186.204569 49.466734 
L 186.579065 48.98602 
L 186.859937 49.013267 
L 187.14081 49.353875 
L 187.515306 50.331923 
L 187.983426 52.430133 
L 188.545171 56.132861 
L 190.043156 67.22835 
L 190.13678 67.194581 
L 190.324029 66.722143 
L 190.604901 64.822163 
L 192.19651 49.673341 
L 192.571007 48.256797 
L 192.945503 47.595525 
L 193.226375 47.48169 
L 193.507247 47.648778 
L 193.78812 48.088845 
L 194.162616 49.146928 
L 194.630737 51.324484 
L 195.192481 55.25736 
L 195.84785 61.781231 
L 196.503218 67.853503 
L 196.690466 68.667585 
L 196.78409 68.721667 
L 196.971339 68.308341 
L 197.158587 67.175264 
L 197.533083 62.660246 
L 198.562948 50.262329 
L 199.031068 47.226963 
L 199.405565 45.930874 
L 199.780061 45.291712 
L 200.154558 45.09844 
L 200.43543 45.181956 
L 200.809926 45.570142 
L 201.184422 46.295298 
L 201.652543 47.80379 
L 202.120663 50.256794 
L 202.682408 54.71754 
L 203.244152 61.381767 
L 203.712273 67.709869 
L 203.712273 67.709869 
" clip-path="url(#p9e19282b6b)" style="fill: none; stroke-dasharray: 1.5,2.475; stroke-dashoffset: 0; stroke: #000000; stroke-width: 1.5"/>
   </g>
   <g id="line2d_3">
    <path d="M 16.557727 34.701229 
L 17.119472 38.379809 
L 17.681216 40.680372 
L 18.242961 42.032415 
L 18.804705 42.762127 
L 19.553698 43.307327 
L 20.302691 43.910097 
L 20.770811 44.655532 
L 21.145307 45.703154 
L 21.519804 47.407397 
L 21.987924 50.809639 
L 22.456045 56.334835 
L 23.860406 75.257321 
L 23.95403 75.545455 
L 24.047654 75.470902 
L 24.234902 74.386625 
L 24.42215 71.746651 
L 25.452015 50.060847 
L 26.01376 42.999959 
L 26.48188 39.83643 
L 26.950001 38.376572 
L 28.167114 35.674282 
L 28.635234 33.536457 
L 29.103355 30.263488 
L 30.507716 18.325519 
L 30.694964 18.291209 
L 30.882212 18.876836 
L 31.163084 20.936297 
L 32.473822 33.568634 
L 32.941942 35.326604 
L 33.410063 36.202027 
L 33.784559 36.459586 
L 34.065431 36.408395 
L 34.346303 36.117399 
L 34.7208 35.267981 
L 35.095296 33.805153 
L 35.563416 30.927831 
L 36.125161 25.587518 
L 36.78053 19.603316 
L 37.061402 18.440826 
L 37.155026 18.358738 
L 37.24865 18.428298 
L 37.435898 19.02472 
L 37.71677 21.057474 
L 39.027508 33.202366 
L 39.495628 34.760353 
L 39.870124 35.363212 
L 40.244621 35.552947 
L 40.525493 35.429658 
L 40.806365 35.04034 
L 41.180862 34.008028 
L 41.555358 32.270114 
L 42.023478 28.911395 
L 43.146967 19.209563 
L 43.334216 18.725155 
L 43.42784 18.700906 
L 43.615088 19.077853 
L 43.89596 20.66715 
L 44.457705 26.161325 
L 45.019449 30.609606 
L 45.393945 32.13468 
L 45.768442 32.905056 
L 46.049314 33.142776 
L 46.330186 33.124671 
L 46.611058 32.828101 
L 46.891931 32.160209 
L 47.266427 30.515042 
L 47.828172 26.809845 
L 48.670788 21.268453 
L 48.951661 20.674906 
L 49.138909 20.734399 
L 49.419781 21.370237 
L 50.636894 25.211662 
L 50.824142 25.271304 
L 51.01139 25.101835 
L 51.292263 24.446544 
L 52.509376 20.758274 
L 52.883872 20.427757 
L 53.164744 20.440649 
L 53.726489 20.791653 
L 54.194609 21.00272 
L 54.569106 20.939507 
L 55.037226 20.587236 
L 56.067091 19.713533 
L 56.628836 19.585941 
L 58.594941 19.518816 
L 59.999303 19.209044 
L 65.148627 19.027022 
L 74.791908 18.943831 
L 183.583095 18.938805 
L 203.712273 18.938805 
L 203.712273 18.938805 
" clip-path="url(#p9e19282b6b)" style="fill: none; stroke: #ff0000; stroke-width: 1.5; stroke-linecap: square"/>
   </g>
   <g id="legend_1">
    <g id="line2d_4">
     <path d="M 222.07 27.58125 
L 232.07 27.58125 
L 242.07 27.58125 
" style="fill: none; stroke: #000000; stroke-opacity: 0.5; stroke-width: 1.5; stroke-linecap: square"/>
    </g>
    <g id="text_2">
     <!-- Ground Truth -->
     <g transform="translate(250.07 31.08125) scale(0.1 -0.1)">
      <defs>
       <path id="DejaVuSans-47" d="M 3809 666 
L 3809 1919 
L 2778 1919 
L 2778 2438 
L 4434 2438 
L 4434 434 
Q 4069 175 3628 42 
Q 3188 -91 2688 -91 
Q 1594 -91 976 548 
Q 359 1188 359 2328 
Q 359 3472 976 4111 
Q 1594 4750 2688 4750 
Q 3144 4750 3555 4637 
Q 3966 4525 4313 4306 
L 4313 3634 
Q 3963 3931 3569 4081 
Q 3175 4231 2741 4231 
Q 1884 4231 1454 3753 
Q 1025 3275 1025 2328 
Q 1025 1384 1454 906 
Q 1884 428 2741 428 
Q 3075 428 3337 486 
Q 3600 544 3809 666 
z
" transform="scale(0.015625)"/>
       <path id="DejaVuSans-72" d="M 2631 2963 
Q 2534 3019 2420 3045 
Q 2306 3072 2169 3072 
Q 1681 3072 1420 2755 
Q 1159 2438 1159 1844 
L 1159 0 
L 581 0 
L 581 3500 
L 1159 3500 
L 1159 2956 
Q 1341 3275 1631 3429 
Q 1922 3584 2338 3584 
Q 2397 3584 2469 3576 
Q 2541 3569 2628 3553 
L 2631 2963 
z
" transform="scale(0.015625)"/>
       <path id="DejaVuSans-6f" d="M 1959 3097 
Q 1497 3097 1228 2736 
Q 959 2375 959 1747 
Q 959 1119 1226 758 
Q 1494 397 1959 397 
Q 2419 397 2687 759 
Q 2956 1122 2956 1747 
Q 2956 2369 2687 2733 
Q 2419 3097 1959 3097 
z
M 1959 3584 
Q 2709 3584 3137 3096 
Q 3566 2609 3566 1747 
Q 3566 888 3137 398 
Q 2709 -91 1959 -91 
Q 1206 -91 779 398 
Q 353 888 353 1747 
Q 353 2609 779 3096 
Q 1206 3584 1959 3584 
z
" transform="scale(0.015625)"/>
       <path id="DejaVuSans-75" d="M 544 1381 
L 544 3500 
L 1119 3500 
L 1119 1403 
Q 1119 906 1312 657 
Q 1506 409 1894 409 
Q 2359 409 2629 706 
Q 2900 1003 2900 1516 
L 2900 3500 
L 3475 3500 
L 3475 0 
L 2900 0 
L 2900 538 
Q 2691 219 2414 64 
Q 2138 -91 1772 -91 
Q 1169 -91 856 284 
Q 544 659 544 1381 
z
M 1991 3584 
L 1991 3584 
z
" transform="scale(0.015625)"/>
       <path id="DejaVuSans-6e" d="M 3513 2113 
L 3513 0 
L 2938 0 
L 2938 2094 
Q 2938 2591 2744 2837 
Q 2550 3084 2163 3084 
Q 1697 3084 1428 2787 
Q 1159 2491 1159 1978 
L 1159 0 
L 581 0 
L 581 3500 
L 1159 3500 
L 1159 2956 
Q 1366 3272 1645 3428 
Q 1925 3584 2291 3584 
Q 2894 3584 3203 3211 
Q 3513 2838 3513 2113 
z
" transform="scale(0.015625)"/>
       <path id="DejaVuSans-64" d="M 2906 2969 
L 2906 4863 
L 3481 4863 
L 3481 0 
L 2906 0 
L 2906 525 
Q 2725 213 2448 61 
Q 2172 -91 1784 -91 
Q 1150 -91 751 415 
Q 353 922 353 1747 
Q 353 2572 751 3078 
Q 1150 3584 1784 3584 
Q 2172 3584 2448 3432 
Q 2725 3281 2906 2969 
z
M 947 1747 
Q 947 1113 1208 752 
Q 1469 391 1925 391 
Q 2381 391 2643 752 
Q 2906 1113 2906 1747 
Q 2906 2381 2643 2742 
Q 2381 3103 1925 3103 
Q 1469 3103 1208 2742 
Q 947 2381 947 1747 
z
" transform="scale(0.015625)"/>
       <path id="DejaVuSans-74" d="M 1172 4494 
L 1172 3500 
L 2356 3500 
L 2356 3053 
L 1172 3053 
L 1172 1153 
Q 1172 725 1289 603 
Q 1406 481 1766 481 
L 2356 481 
L 2356 0 
L 1766 0 
Q 1100 0 847 248 
Q 594 497 594 1153 
L 594 3053 
L 172 3053 
L 172 3500 
L 594 3500 
L 594 4494 
L 1172 4494 
z
" transform="scale(0.015625)"/>
       <path id="DejaVuSans-68" d="M 3513 2113 
L 3513 0 
L 2938 0 
L 2938 2094 
Q 2938 2591 2744 2837 
Q 2550 3084 2163 3084 
Q 1697 3084 1428 2787 
Q 1159 2491 1159 1978 
L 1159 0 
L 581 0 
L 581 4863 
L 1159 4863 
L 1159 2956 
Q 1366 3272 1645 3428 
Q 1925 3584 2291 3584 
Q 2894 3584 3203 3211 
Q 3513 2838 3513 2113 
z
" transform="scale(0.015625)"/>
      </defs>
      <use xlink:href="#DejaVuSans-47"/>
      <use xlink:href="#DejaVuSans-72" x="77.490234"/>
      <use xlink:href="#DejaVuSans-6f" x="116.353516"/>
      <use xlink:href="#DejaVuSans-75" x="177.535156"/>
      <use xlink:href="#DejaVuSans-6e" x="240.914062"/>
      <use xlink:href="#DejaVuSans-64" x="304.292969"/>
      <use xlink:href="#DejaVuSans-20" x="367.769531"/>
      <use xlink:href="#DejaVuSans-54" x="399.556641"/>
      <use xlink:href="#DejaVuSans-72" x="445.890625"/>
      <use xlink:href="#DejaVuSans-75" x="487.003906"/>
      <use xlink:href="#DejaVuSans-74" x="550.382812"/>
      <use xlink:href="#DejaVuSans-68" x="589.591797"/>
     </g>
    </g>
    <g id="line2d_5">
     <path d="M 222.07 42.259375 
L 232.07 42.259375 
L 242.07 42.259375 
" style="fill: none; stroke-dasharray: 1.5,2.475; stroke-dashoffset: 0; stroke: #000000; stroke-width: 1.5"/>
    </g>
    <g id="text_3">
     <!-- 1-step Pred. -->
     <g transform="translate(250.07 45.759375) scale(0.1 -0.1)">
      <defs>
       <path id="DejaVuSans-31" d="M 794 531 
L 1825 531 
L 1825 4091 
L 703 3866 
L 703 4441 
L 1819 4666 
L 2450 4666 
L 2450 531 
L 3481 531 
L 3481 0 
L 794 0 
L 794 531 
z
" transform="scale(0.015625)"/>
       <path id="DejaVuSans-2d" d="M 313 2009 
L 1997 2009 
L 1997 1497 
L 313 1497 
L 313 2009 
z
" transform="scale(0.015625)"/>
       <path id="DejaVuSans-73" d="M 2834 3397 
L 2834 2853 
Q 2591 2978 2328 3040 
Q 2066 3103 1784 3103 
Q 1356 3103 1142 2972 
Q 928 2841 928 2578 
Q 928 2378 1081 2264 
Q 1234 2150 1697 2047 
L 1894 2003 
Q 2506 1872 2764 1633 
Q 3022 1394 3022 966 
Q 3022 478 2636 193 
Q 2250 -91 1575 -91 
Q 1294 -91 989 -36 
Q 684 19 347 128 
L 347 722 
Q 666 556 975 473 
Q 1284 391 1588 391 
Q 1994 391 2212 530 
Q 2431 669 2431 922 
Q 2431 1156 2273 1281 
Q 2116 1406 1581 1522 
L 1381 1569 
Q 847 1681 609 1914 
Q 372 2147 372 2553 
Q 372 3047 722 3315 
Q 1072 3584 1716 3584 
Q 2034 3584 2315 3537 
Q 2597 3491 2834 3397 
z
" transform="scale(0.015625)"/>
       <path id="DejaVuSans-70" d="M 1159 525 
L 1159 -1331 
L 581 -1331 
L 581 3500 
L 1159 3500 
L 1159 2969 
Q 1341 3281 1617 3432 
Q 1894 3584 2278 3584 
Q 2916 3584 3314 3078 
Q 3713 2572 3713 1747 
Q 3713 922 3314 415 
Q 2916 -91 2278 -91 
Q 1894 -91 1617 61 
Q 1341 213 1159 525 
z
M 3116 1747 
Q 3116 2381 2855 2742 
Q 2594 3103 2138 3103 
Q 1681 3103 1420 2742 
Q 1159 2381 1159 1747 
Q 1159 1113 1420 752 
Q 1681 391 2138 391 
Q 2594 391 2855 752 
Q 3116 1113 3116 1747 
z
" transform="scale(0.015625)"/>
       <path id="DejaVuSans-50" d="M 1259 4147 
L 1259 2394 
L 2053 2394 
Q 2494 2394 2734 2622 
Q 2975 2850 2975 3272 
Q 2975 3691 2734 3919 
Q 2494 4147 2053 4147 
L 1259 4147 
z
M 628 4666 
L 2053 4666 
Q 2838 4666 3239 4311 
Q 3641 3956 3641 3272 
Q 3641 2581 3239 2228 
Q 2838 1875 2053 1875 
L 1259 1875 
L 1259 0 
L 628 0 
L 628 4666 
z
" transform="scale(0.015625)"/>
       <path id="DejaVuSans-2e" d="M 684 794 
L 1344 794 
L 1344 0 
L 684 0 
L 684 794 
z
" transform="scale(0.015625)"/>
      </defs>
      <use xlink:href="#DejaVuSans-31"/>
      <use xlink:href="#DejaVuSans-2d" x="63.623047"/>
      <use xlink:href="#DejaVuSans-73" x="99.707031"/>
      <use xlink:href="#DejaVuSans-74" x="151.806641"/>
      <use xlink:href="#DejaVuSans-65" x="191.015625"/>
      <use xlink:href="#DejaVuSans-70" x="252.539062"/>
      <use xlink:href="#DejaVuSans-20" x="316.015625"/>
      <use xlink:href="#DejaVuSans-50" x="347.802734"/>
      <use xlink:href="#DejaVuSans-72" x="406.355469"/>
      <use xlink:href="#DejaVuSans-65" x="445.21875"/>
      <use xlink:href="#DejaVuSans-64" x="506.742188"/>
      <use xlink:href="#DejaVuSans-2e" x="570.21875"/>
     </g>
    </g>
    <g id="line2d_6">
     <path d="M 222.07 56.9375 
L 232.07 56.9375 
L 242.07 56.9375 
" style="fill: none; stroke: #ff0000; stroke-width: 1.5; stroke-linecap: square"/>
    </g>
    <g id="text_4">
     <!-- Autonomous Pred. -->
     <g transform="translate(250.07 60.4375) scale(0.1 -0.1)">
      <defs>
       <path id="DejaVuSans-41" d="M 2188 4044 
L 1331 1722 
L 3047 1722 
L 2188 4044 
z
M 1831 4666 
L 2547 4666 
L 4325 0 
L 3669 0 
L 3244 1197 
L 1141 1197 
L 716 0 
L 50 0 
L 1831 4666 
z
" transform="scale(0.015625)"/>
      </defs>
      <use xlink:href="#DejaVuSans-41"/>
      <use xlink:href="#DejaVuSans-75" x="68.408203"/>
      <use xlink:href="#DejaVuSans-74" x="131.787109"/>
      <use xlink:href="#DejaVuSans-6f" x="170.996094"/>
      <use xlink:href="#DejaVuSans-6e" x="232.177734"/>
      <use xlink:href="#DejaVuSans-6f" x="295.556641"/>
      <use xlink:href="#DejaVuSans-6d" x="356.738281"/>
      <use xlink:href="#DejaVuSans-6f" x="454.150391"/>
      <use xlink:href="#DejaVuSans-75" x="515.332031"/>
      <use xlink:href="#DejaVuSans-73" x="578.710938"/>
      <use xlink:href="#DejaVuSans-20" x="630.810547"/>
      <use xlink:href="#DejaVuSans-50" x="662.597656"/>
      <use xlink:href="#DejaVuSans-72" x="721.150391"/>
      <use xlink:href="#DejaVuSans-65" x="760.013672"/>
      <use xlink:href="#DejaVuSans-64" x="821.537109"/>
      <use xlink:href="#DejaVuSans-2e" x="885.013672"/>
     </g>
    </g>
   </g>
  </g>
 </g>
 <defs>
  <clipPath id="p9e19282b6b">
   <rect x="7.2" y="7.2" width="205.87" height="71.6"/>
  </clipPath>
 </defs>
</svg>
